# xmcd
#
# Track frame offsets: 
#        150
#        11318
#        28189
#        38794
#        63786
#        75515
#        89519
#        99150
#        116967
#
# Disc length: 1664 seconds
#
# Revision: 0
# Processed by: cddbd v1.5.2PL0 Copyright (c) Steve Scherf et al.
# Submitted via: ExactAudioCopy v1.0b4
#
DISCID=62067e09
DTITLE=James Cotton - Two Sides Of The Blues
DYEAR=2017
DGENRE=Blues
TTITLE0=Good Time Charlie
TTITLE1=There Is Something On Your Mind
TTITLE2=Turn On Your Lovelight
TTITLE3=Jelly, Jelly
TTITLE4=South Side Boogie
TTITLE5=So Glad I'm Living
TTITLE6=Diggin' My Potatoes
TTITLE7=V-8 Ford Blues
TTITLE8=Polly Put The Kettle On
EXTD=
EXTT0=
EXTT1=
EXTT2=
EXTT3=
EXTT4=
EXTT5=
EXTT6=
EXTT7=
EXTT8=
PLAYORDER=
